<svg width="20" height="21" viewBox="0 0 20 21" fill="none" xmlns="http://www.w3.org/2000/svg">
<path d="M16.0427 13.6908C16.1665 13.6904 16.2892 13.7158 16.4027 13.7653L18.7369 14.6592C19.0845 14.7917 19.2584 14.9903 19.2584 15.2552C19.2475 15.4126 19.1915 15.5635 19.097 15.6898C18.176 17.0926 16.905 18.231 15.4094 18.9924C13.8815 19.7799 12.1837 20.1804 10.4649 20.1588C8.74608 20.1371 7.05885 19.694 5.55125 18.8682C4.01717 18.0352 2.73179 16.8098 1.82649 15.3173C0.933447 13.8555 0.460938 12.1757 0.460938 10.4627C0.460938 8.74968 0.933447 7.06988 1.82649 5.60808C2.73457 4.11777 4.01927 2.89302 5.55125 2.05714C7.04745 1.22408 8.72747 0.776526 10.4398 0.754851C12.1522 0.733176 13.843 1.13806 15.3598 1.93299C16.8459 2.68939 18.1246 3.79759 19.0845 5.16111C19.1773 5.28838 19.2331 5.43873 19.2459 5.59566C19.2459 5.8564 19.0721 6.05505 18.7493 6.19163L16.4151 7.08557C16.2933 7.13638 16.1623 7.16173 16.0302 7.16007C15.8996 7.1578 15.7715 7.12385 15.6568 7.06113C15.5422 6.99842 15.4445 6.90881 15.3722 6.8C14.7722 6.08036 14.0332 5.48915 13.1994 5.06178C12.4332 4.65643 11.5829 4.43537 10.7163 4.41616C9.65864 4.40955 8.61944 4.69297 7.71162 5.2356C6.79949 5.78382 6.03958 6.55227 5.50159 7.47046C4.9686 8.37305 4.68746 9.40206 4.68746 10.4503C4.68746 11.4985 4.9686 12.5275 5.50159 13.4301C6.03259 14.3462 6.78911 15.1112 7.6992 15.6525C8.9537 16.3741 10.4279 16.6145 11.8467 16.329C13.2655 16.0434 14.5318 15.2513 15.4094 14.1005C15.4776 13.984 15.5732 13.8857 15.6878 13.8143C15.8025 13.7429 15.9328 13.7006 16.0675 13.6908" fill="white"/>
</svg>
