<svg width="9" height="11" viewBox="0 0 9 11" fill="none" xmlns="http://www.w3.org/2000/svg">
<path d="M3.37085 0.854004C4.70118 0.854004 5.97702 1.38247 6.9177 2.32316C7.85839 3.26384 8.38686 4.53969 8.38686 5.87002C8.38686 7.20034 7.85839 8.47619 6.9177 9.41687C5.97702 10.3576 4.70118 10.886 3.37085 10.886H0.279297V0.854004H3.37085ZM1.58297 2.0211V9.70652H3.37085C3.89386 9.73626 4.41743 9.65892 4.9095 9.47925C5.40157 9.29957 5.85179 9.02135 6.23258 8.6616C6.61337 8.30185 6.91671 7.86815 7.12403 7.38707C7.33135 6.906 7.43828 6.38766 7.43828 5.86381C7.43828 5.33996 7.33135 4.82162 7.12403 4.34054C6.91671 3.85947 6.61337 3.42577 6.23258 3.06602C5.85179 2.70627 5.40157 2.42804 4.9095 2.24836C4.41743 2.06869 3.89386 1.99136 3.37085 2.0211H1.58297Z" fill="white"/>
</svg>
