<svg width="11" height="12" viewBox="0 0 11 12" fill="none" xmlns="http://www.w3.org/2000/svg">
<path d="M10.0603 7.75782C9.75764 8.75675 9.13062 9.62628 8.2784 10.2289C7.42617 10.8315 6.39738 11.1329 5.35469 11.0853C4.00393 11.0459 2.72033 10.4873 1.77083 9.52581C0.821318 8.56428 0.278967 7.27375 0.256581 5.92259C0.234195 4.57144 0.733485 3.26366 1.65062 2.27119C2.56775 1.27873 3.83215 0.67798 5.18087 0.593865C6.31375 0.486372 7.44547 0.810209 8.35001 1.5007C9.25455 2.19118 9.8653 3.19749 10.0603 4.31863H8.68213C8.52757 3.55878 8.10264 2.88078 7.48617 2.41044C6.8697 1.9401 6.10354 1.70933 5.32985 1.76095C4.80359 1.75526 4.28173 1.85722 3.7963 2.06055C3.31088 2.26388 2.87214 2.5643 2.50703 2.94336C2.14193 3.32241 1.85815 3.77211 1.67316 4.26482C1.48817 4.75753 1.40586 5.28285 1.43127 5.80853C1.40655 6.35153 1.49529 6.89372 1.69182 7.4005C1.88836 7.90729 2.18838 8.36754 2.57273 8.75189C2.95709 9.13624 3.41734 9.43626 3.92413 9.6328C4.43091 9.82934 4.97311 9.91807 5.5161 9.89335C6.19081 9.89533 6.85018 9.69214 7.40675 9.31074C7.96332 8.92935 8.39079 8.38776 8.63248 7.75782H10.0603Z" fill="white"/>
</svg>
