<svg width="15" height="15" viewBox="0 0 15 15" fill="none" xmlns="http://www.w3.org/2000/svg">
<path d="M11.8902 9.95452C11.9846 9.95422 12.078 9.97355 12.1645 10.0113L13.9429 10.6924C14.2078 10.7933 14.3402 10.9446 14.3402 11.1464C14.332 11.2663 14.2893 11.3813 14.2173 11.4775C13.5156 12.5464 12.5472 13.4137 11.4078 13.9938C10.2436 14.5938 8.95007 14.8989 7.64052 14.8824C6.33097 14.8659 5.04548 14.5283 3.89684 13.8992C2.72803 13.2645 1.74871 12.3309 1.05896 11.1937C0.378558 10.08 0.0185547 8.80015 0.0185547 7.49502C0.0185547 6.18989 0.378558 4.91006 1.05896 3.79632C1.75082 2.66086 2.72964 1.72772 3.89684 1.09088C5.03679 0.456166 6.31679 0.115178 7.62142 0.0986637C8.92605 0.0821494 10.2143 0.390628 11.3699 0.99628C12.5022 1.57258 13.4764 2.41692 14.2078 3.45578C14.2784 3.55274 14.321 3.66729 14.3308 3.78686C14.3308 3.98551 14.1983 4.13686 13.9524 4.24092L12.174 4.92201C12.0811 4.96072 11.9813 4.98004 11.8807 4.97877C11.7812 4.97705 11.6836 4.95118 11.5963 4.9034C11.5089 4.85561 11.4345 4.78734 11.3794 4.70444C10.9223 4.15615 10.3592 3.70571 9.72396 3.3801C9.14014 3.07126 8.49235 2.90284 7.83204 2.8882C7.02624 2.88316 6.23449 3.0991 5.54282 3.51253C4.84787 3.93022 4.2689 4.51569 3.859 5.21526C3.45293 5.90294 3.23872 6.68694 3.23872 7.48556C3.23872 8.28418 3.45293 9.06819 3.859 9.75587C4.26358 10.4538 4.83997 11.0367 5.53336 11.4491C6.48916 11.9989 7.61235 12.1821 8.69331 11.9645C9.77426 11.7469 10.7391 11.1434 11.4078 10.2667C11.4597 10.1779 11.5325 10.103 11.6199 10.0486C11.7072 9.99424 11.8065 9.96194 11.9091 9.95452" fill="#021F55"/>
</svg>
