<svg width="9" height="9" viewBox="0 0 9 9" fill="none" xmlns="http://www.w3.org/2000/svg">
<path d="M8.04614 6.24328C7.81554 7.00435 7.33782 7.66685 6.68851 8.12599C6.0392 8.58513 5.25537 8.81472 4.46095 8.77845C3.43181 8.74844 2.45385 8.32289 1.73042 7.5903C1.00699 6.85771 0.593777 5.87446 0.576722 4.84503C0.559666 3.81559 0.940073 2.81919 1.63883 2.06304C2.33759 1.30689 3.30094 0.849175 4.32852 0.785088C5.19165 0.70319 6.05391 0.94992 6.74307 1.476C7.43224 2.00208 7.89757 2.76878 8.04614 3.62297H6.99612C6.87836 3.04404 6.5546 2.52748 6.08492 2.16913C5.61523 1.81078 5.0315 1.63496 4.44203 1.67429C4.04107 1.66995 3.64347 1.74763 3.27362 1.90255C2.90378 2.05747 2.5695 2.28635 2.29133 2.57516C2.01316 2.86396 1.79695 3.20658 1.65601 3.58197C1.51507 3.95736 1.45235 4.35761 1.47171 4.75812C1.45288 5.17183 1.52049 5.58492 1.67023 5.97104C1.81997 6.35715 2.04855 6.70782 2.34139 7.00065C2.63423 7.29349 2.98489 7.52208 3.37101 7.67182C3.75713 7.82155 4.17022 7.88916 4.58393 7.87033C5.09799 7.87183 5.60036 7.71703 6.02441 7.42644C6.44846 7.13586 6.77415 6.72323 6.95829 6.24328H8.04614Z" fill="#021F55"/>
</svg>
