<svg width="7" height="9" viewBox="0 0 7 9" fill="none" xmlns="http://www.w3.org/2000/svg">
<path d="M2.90134 0.983643C3.91492 0.983643 4.88697 1.38628 5.60367 2.10299C6.32038 2.81969 6.72302 3.79175 6.72302 4.80532C6.72302 5.81889 6.32038 6.79095 5.60367 7.50766C4.88697 8.22436 3.91492 8.627 2.90134 8.627H0.545898V0.983643H2.90134ZM1.53916 1.87285V7.72834H2.90134C3.29982 7.751 3.69872 7.69207 4.07363 7.55518C4.44854 7.41829 4.79156 7.20631 5.08168 6.93221C5.3718 6.65812 5.60292 6.32769 5.76087 5.96116C5.91883 5.59463 6.0003 5.19971 6.0003 4.80059C6.0003 4.40147 5.91883 4.00655 5.76087 3.64002C5.60292 3.27349 5.3718 2.94306 5.08168 2.66897C4.79156 2.39488 4.44854 2.18289 4.07363 2.046C3.69872 1.90911 3.29982 1.85019 2.90134 1.87285H1.53916Z" fill="#021F55"/>
</svg>
