<svg width="16" height="16" viewBox="0 0 16 16" fill="none" xmlns="http://www.w3.org/2000/svg">
<path d="M4.5892 14.4013C3.43556 13.9046 2.43341 13.1123 1.68389 12.1044C0.806486 10.8444 0.37 9.32976 0.442301 7.79607C0.412547 6.44283 0.765449 5.10869 1.4604 3.94715C2.11756 2.84386 3.07303 1.94866 4.21672 1.36465C5.40717 0.754768 6.72814 0.443698 8.06564 0.458289C9.29846 0.45049 10.5155 0.735604 11.6166 1.29015C12.7075 1.84147 13.636 2.66731 14.3108 3.68642C14.7424 4.28609 15.0505 4.96558 15.2172 5.68537C15.3604 6.43821 15.427 7.20363 15.4158 7.96989C15.4307 8.29046 15.3342 8.6063 15.1427 8.86383C15.0483 8.98258 14.927 9.07717 14.7888 9.13978C14.6507 9.20239 14.4996 9.23122 14.3481 9.22389H4.21672C4.28748 9.63392 4.45056 10.0225 4.69362 10.3602C4.93668 10.6979 5.25337 10.9759 5.61971 11.1732C6.38024 11.5903 7.23554 11.8041 8.10289 11.794C8.67701 11.8186 9.25017 11.7269 9.78788 11.5241C10.3256 11.3214 10.8167 11.012 11.2317 10.6145C11.3939 10.4497 11.6097 10.3484 11.8401 10.3289C12.0044 10.3328 12.1641 10.3846 12.2995 10.4779L13.9632 11.4587C14.0782 11.5039 14.1785 11.58 14.253 11.6786C14.3275 11.7772 14.3733 11.8945 14.3853 12.0175C14.3641 12.1998 14.2908 12.3723 14.1742 12.5141C13.4126 13.3755 12.4701 14.058 11.4142 14.513C10.3582 14.968 9.21483 15.1843 8.06564 15.1463C6.85532 15.1453 5.65853 14.8916 4.55195 14.4013H4.5892ZM5.45831 4.58036C5.1447 4.8105 4.8831 5.10414 4.69057 5.44215C4.49804 5.78015 4.37888 6.15493 4.34088 6.54207H11.3931C11.3268 6.09299 11.1521 5.66683 10.884 5.30048C10.5784 4.88388 10.184 4.54038 9.72936 4.29479C9.21244 4.03969 8.64199 3.91198 8.06564 3.92232C7.14478 3.88255 6.23667 4.14887 5.48314 4.67969" fill="white"/>
</svg>
