<svg width="12" height="12" viewBox="0 0 12 12" fill="none" xmlns="http://www.w3.org/2000/svg">
<path d="M3.16442 11.3059C2.28547 10.9274 1.52193 10.3237 0.950873 9.55582C0.282384 8.59583 -0.0501726 7.44186 0.00491305 6.27334C-0.017756 5.24232 0.251119 4.22584 0.7806 3.34087C1.28129 2.50028 2.00925 1.81822 2.88063 1.37327C3.78763 0.908607 4.79407 0.671603 5.81311 0.68272C6.75239 0.676778 7.67965 0.894005 8.51855 1.31652C9.34969 1.73656 10.0571 2.36577 10.5713 3.14222C10.9001 3.59911 11.1348 4.1168 11.2618 4.66521C11.371 5.23879 11.4217 5.82197 11.4132 6.40578C11.4245 6.65002 11.351 6.89065 11.2051 7.08687C11.1332 7.17735 11.0408 7.24941 10.9355 7.29711C10.8302 7.34481 10.7151 7.36678 10.5997 7.3612H2.88063C2.93454 7.67359 3.05879 7.96964 3.24398 8.22694C3.42917 8.48424 3.67045 8.69605 3.94956 8.84635C4.52901 9.16417 5.18065 9.32708 5.84148 9.31933C6.2789 9.33812 6.7156 9.26819 7.12528 9.11375C7.53496 8.95931 7.90915 8.72355 8.22531 8.42067C8.34889 8.29514 8.51329 8.21797 8.68882 8.2031C8.81405 8.20605 8.93571 8.2455 9.03883 8.31662L10.3064 9.06392C10.394 9.09835 10.4705 9.15632 10.5272 9.23144C10.584 9.30656 10.6189 9.3959 10.628 9.48961C10.6119 9.62856 10.5561 9.75992 10.4672 9.86799C9.88693 10.5243 9.16888 11.0443 8.36435 11.391C7.55982 11.7376 6.68867 11.9024 5.81311 11.8734C4.89096 11.8727 3.97914 11.6794 3.13604 11.3059H3.16442ZM3.82659 3.82331C3.58765 3.99865 3.38834 4.22238 3.24165 4.4799C3.09496 4.73742 3.00418 5.02297 2.97523 5.31792H8.34827C8.29777 4.97578 8.16466 4.65109 7.96044 4.37196C7.72755 4.05456 7.42706 3.79285 7.08069 3.60574C6.68685 3.41138 6.25222 3.31407 5.81311 3.32195C5.1115 3.29165 4.41962 3.49456 3.84551 3.89898" fill="#021F55"/>
</svg>
