<svg width="18" height="12" viewBox="0 0 18 12" fill="none" xmlns="http://www.w3.org/2000/svg">
<path fill-rule="evenodd" clip-rule="evenodd" d="M15.2368 9.11574C16.0481 8.38328 16.7135 7.6416 17.1878 7.06571C17.576 6.59444 17.77 6.35881 17.77 6C17.77 5.64119 17.576 5.40556 17.1878 4.93429C15.7677 3.21014 12.6355 0 8.99977 0C8.16028 0 7.34763 0.171148 6.57671 0.455633L9.12358 3.00251C10.682 3.06577 11.934 4.31781 11.9973 5.87618L15.2368 9.11574ZM6.39284 4.5144C6.1427 4.95239 5.99977 5.4595 5.99977 6C5.99977 7.65685 7.34291 9 8.99977 9C9.54026 9 10.0474 8.85706 10.4854 8.60693L12.787 10.9085C11.6358 11.5555 10.3526 12 8.99977 12C5.36403 12 2.23183 8.78986 0.811735 7.06571C0.423573 6.59444 0.229492 6.35881 0.229492 6C0.229492 5.64119 0.423573 5.40556 0.811736 4.93429C1.48516 4.11667 2.5436 2.96489 3.85818 1.97974L6.39284 4.5144Z" fill="#37434E"/>
</svg>
