<svg width="32" height="29" viewBox="0 0 32 29" fill="none" xmlns="http://www.w3.org/2000/svg">
<path d="M31.1632 20.4469L21.5287 3.75781C20.9815 2.86192 20.2032 2.12991 19.2755 1.63864C18.3478 1.14738 17.3049 0.914997 16.2564 0.965901C15.2092 0.922905 14.1692 1.15871 13.243 1.64923C12.3167 2.13975 11.5372 2.86739 10.9842 3.75781L1.34965 20.4469C0.978098 21.0869 0.736241 21.7938 0.637884 22.5273C0.539528 23.2607 0.586604 24.0064 0.776414 24.7216C1.15975 26.1661 2.10122 27.3992 3.39372 28.1496C4.68622 28.9 6.22387 29.1062 7.6684 28.7228C9.11293 28.3395 10.346 27.398 11.0964 26.1055L16.2564 17.1565L21.4289 26.1055C21.791 26.7582 22.2793 27.3322 22.8656 27.7941C23.4518 28.2561 24.1241 28.5966 24.8434 28.7959C25.5626 28.9952 26.3144 29.0493 27.0547 28.955C27.7951 28.8608 28.5093 28.62 29.1556 28.2467C29.8019 27.8735 30.3674 27.3753 30.8192 26.7812C31.2709 26.1871 31.5998 25.509 31.7867 24.7864C31.9736 24.0638 32.0147 23.3113 31.9077 22.5727C31.8006 21.834 31.5475 21.1241 31.1632 20.4843" fill="white"/>
</svg>
