<svg width="43" height="34" viewBox="0 0 43 34" fill="none" xmlns="http://www.w3.org/2000/svg">
<path d="M15.0377 15.0265C15.7198 13.9981 16.6459 13.1545 17.7333 12.5709C18.8206 11.9874 20.0355 11.682 21.2696 11.682C22.5037 11.682 23.7186 11.9874 24.8059 12.5709C25.8933 13.1545 26.8194 13.9981 27.5015 15.0265L38.3576 33.9093C40.699 30.7442 42.1158 26.9913 42.45 23.0685C42.7842 19.1457 42.0228 15.2072 40.2505 11.6916C38.4783 8.17609 35.7648 5.22161 32.4124 3.15732C29.06 1.09303 25.2004 0 21.2634 0C17.3264 0 13.4667 1.09303 10.1143 3.15732C6.76191 5.22161 4.04844 8.17609 2.2762 11.6916C0.503961 15.2072 -0.257455 19.1457 0.0767701 23.0685C0.410995 26.9913 1.82774 30.7442 4.16917 33.9093L15.0377 15.0265Z" fill="white"/>
</svg>
