<svg width="24" height="15" viewBox="0 0 24 15" fill="none" xmlns="http://www.w3.org/2000/svg">
<path d="M21.8009 1.99772C22.8535 3.23462 23.3794 4.8348 23.2659 6.45501V13.9914C23.2738 14.0952 23.2603 14.1994 23.2261 14.2977C23.1919 14.396 23.1378 14.4861 23.0673 14.5626C22.9923 14.6316 22.9042 14.6847 22.8082 14.7189C22.7122 14.753 22.6103 14.7674 22.5086 14.7612H20.1744C20.0704 14.7731 19.9651 14.7614 19.8663 14.7269C19.7675 14.6924 19.6777 14.6361 19.6037 14.5621C19.5297 14.4881 19.4734 14.3983 19.4389 14.2995C19.4044 14.2007 19.3927 14.0954 19.4046 13.9914V6.45501C19.4365 6.06587 19.388 5.67433 19.2619 5.30478C19.1359 4.93524 18.9351 4.59561 18.6721 4.30707C18.1189 3.82018 17.3964 3.57044 16.6607 3.61178C16.3028 3.60533 15.9478 3.67633 15.6199 3.81991C15.292 3.96349 14.999 4.17627 14.7611 4.44364C14.2057 5.14861 13.9235 6.03039 13.9664 6.92682V13.9914C13.9719 14.096 13.9561 14.2006 13.9198 14.2988C13.8835 14.397 13.8275 14.4867 13.7554 14.5626C13.6804 14.6316 13.5923 14.6847 13.4963 14.7189C13.4003 14.753 13.2984 14.7674 13.1967 14.7612H10.8625C10.6535 14.7715 10.4488 14.7003 10.2913 14.5626C10.2208 14.4861 10.1667 14.396 10.1325 14.2977C10.0984 14.1994 10.0848 14.0952 10.0927 13.9914V6.45501C10.1279 6.06762 10.0833 5.67711 9.96158 5.30765C9.83985 4.93819 9.64361 4.59764 9.38499 4.30707C9.11404 4.06519 8.79794 3.87924 8.45489 3.75992C8.11184 3.6406 7.7486 3.59025 7.38603 3.61178C7.01388 3.60227 6.64436 3.67656 6.30479 3.82914C5.96523 3.98173 5.66431 4.20872 5.42432 4.4933C4.84885 5.31943 4.58089 6.32101 4.66695 7.32412V14.0163C4.68136 14.1207 4.67138 14.2271 4.63779 14.3271C4.60421 14.4271 4.54792 14.5179 4.47335 14.5925C4.39878 14.667 4.30795 14.7233 4.20799 14.7569C4.10802 14.7905 4.00164 14.8005 3.89717 14.7861H1.61266C1.51096 14.7922 1.40904 14.7778 1.31304 14.7437C1.21704 14.7096 1.12891 14.6564 1.05393 14.5874C0.981758 14.5116 0.925834 14.4218 0.889542 14.3236C0.85325 14.2254 0.837356 14.1208 0.842861 14.0163V1.46383C0.837356 1.35928 0.85325 1.25471 0.889542 1.15651C0.925834 1.05831 0.981758 0.968546 1.05393 0.892704C1.12891 0.823712 1.21704 0.770555 1.31304 0.736421C1.40904 0.702287 1.51096 0.687878 1.61266 0.69405H3.89717C4.00079 0.687604 4.10465 0.701846 4.2027 0.735952C4.30076 0.770059 4.39104 0.823347 4.46829 0.892704C4.53886 0.969153 4.59291 1.05932 4.62709 1.15758C4.66127 1.25584 4.67484 1.3601 4.66695 1.46383V1.97288C5.20067 1.50596 5.8093 1.13239 6.46725 0.867872C7.07466 0.600115 7.72818 0.452548 8.39171 0.433318C9.24456 0.380939 10.0979 0.527527 10.8844 0.861511C11.6709 1.1955 12.369 1.70773 12.9235 2.35778C13.4621 1.73537 14.1379 1.24658 14.8976 0.92995C15.7114 0.59065 16.5861 0.421635 17.4677 0.433318C18.2589 0.380422 19.0524 0.492128 19.7982 0.761391C20.5441 1.03065 21.2259 1.45162 21.8009 1.99772Z" fill="white"/>
</svg>
