<svg width="18" height="12" viewBox="0 0 18 12" fill="none" xmlns="http://www.w3.org/2000/svg">
<path d="M16.5145 1.85576C17.3165 2.79815 17.7172 4.01732 17.6307 5.25176V10.9937C17.6368 11.0728 17.6264 11.1522 17.6004 11.2271C17.5744 11.3019 17.5332 11.3706 17.4794 11.4289C17.4223 11.4814 17.3551 11.5219 17.282 11.5479C17.2088 11.574 17.1312 11.5849 17.0537 11.5802H15.2753C15.1961 11.5893 15.1159 11.5803 15.0406 11.5541C14.9653 11.5278 14.8969 11.4849 14.8405 11.4285C14.7842 11.3721 14.7412 11.3037 14.715 11.2285C14.6887 11.1532 14.6798 11.0729 14.6888 10.9937V5.25176C14.7131 4.95527 14.6761 4.65696 14.5801 4.3754C14.4841 4.09385 14.3311 3.83509 14.1307 3.61525C13.7093 3.24429 13.1588 3.05401 12.5982 3.08551C12.3256 3.0806 12.0551 3.13469 11.8053 3.24409C11.5554 3.35348 11.3322 3.51559 11.1509 3.7193C10.7278 4.25642 10.5128 4.92824 10.5455 5.61122V10.9937C10.5497 11.0734 10.5376 11.1531 10.51 11.2279C10.4823 11.3027 10.4397 11.3711 10.3847 11.4289C10.3276 11.4814 10.2604 11.5219 10.1873 11.5479C10.1141 11.574 10.0365 11.5849 9.95902 11.5802H8.18061C8.02143 11.5881 7.86542 11.5338 7.74547 11.4289C7.6917 11.3706 7.65052 11.3019 7.62448 11.2271C7.59844 11.1522 7.58811 11.0728 7.59412 10.9937V5.25176C7.62098 4.9566 7.58697 4.65908 7.49423 4.37759C7.40148 4.0961 7.25196 3.83663 7.05492 3.61525C6.84848 3.43096 6.60766 3.28929 6.34629 3.19838C6.08492 3.10747 5.80816 3.06911 5.53192 3.08551C5.24838 3.07826 4.96685 3.13486 4.70813 3.25112C4.44942 3.36738 4.22016 3.54031 4.0373 3.75714C3.59886 4.38656 3.3947 5.14966 3.46027 5.91393V11.0127C3.47125 11.0922 3.46365 11.1733 3.43805 11.2495C3.41246 11.3256 3.36958 11.3948 3.31277 11.4516C3.25595 11.5085 3.18675 11.5513 3.11059 11.5769C3.03442 11.6025 2.95337 11.6101 2.87378 11.5991H1.13321C1.05573 11.6039 0.978081 11.5929 0.904937 11.5669C0.831794 11.5409 0.764646 11.5004 0.707521 11.4478C0.652534 11.39 0.609926 11.3216 0.582275 11.2468C0.554625 11.172 0.542515 11.0923 0.546709 11.0127V1.449C0.542515 1.36934 0.554625 1.28967 0.582275 1.21485C0.609926 1.14003 0.652534 1.07164 0.707521 1.01386C0.764646 0.961293 0.831794 0.920793 0.904937 0.894786C0.978081 0.86878 1.05573 0.857801 1.13321 0.862504H2.87378C2.95272 0.857593 3.03185 0.868443 3.10656 0.894429C3.18127 0.920414 3.25005 0.961015 3.30891 1.01386C3.36267 1.0721 3.40386 1.1408 3.4299 1.21567C3.45594 1.29053 3.46628 1.36996 3.46027 1.449V1.83684C3.8669 1.48109 4.33062 1.19647 4.83191 0.994938C5.29469 0.790936 5.79261 0.678504 6.29815 0.663853C6.94793 0.623946 7.5981 0.73563 8.19732 0.990092C8.79653 1.24455 9.3284 1.63482 9.75091 2.13009C10.1613 1.65588 10.6761 1.28348 11.255 1.04224C11.875 0.783724 12.5414 0.654952 13.2131 0.663853C13.8159 0.623552 14.4205 0.70866 14.9887 0.91381C15.557 1.11896 16.0765 1.43969 16.5145 1.85576Z" fill="#021F55"/>
</svg>
