<svg width="14" height="15" viewBox="0 0 14 15" fill="none" xmlns="http://www.w3.org/2000/svg">
<path d="M12.3392 1.96108C13.3101 3.24928 13.778 4.84723 13.6553 6.45563V13.9921C13.6672 14.096 13.6555 14.2013 13.621 14.3001C13.5865 14.399 13.5302 14.4887 13.4562 14.5627C13.3822 14.6367 13.2924 14.693 13.1936 14.7275C13.0948 14.762 12.9895 14.7737 12.8855 14.7618H10.5017C10.4 14.768 10.2981 14.7536 10.2021 14.7195C10.1061 14.6853 10.0179 14.6322 9.94297 14.5632C9.8708 14.4873 9.81486 14.3976 9.77856 14.2994C9.74227 14.2012 9.7264 14.0966 9.7319 13.9921V6.45563C9.7319 4.556 8.82555 3.61239 7.02525 3.61239C6.65211 3.60439 6.28196 3.68061 5.94233 3.83538C5.6027 3.99015 5.30233 4.21948 5.06354 4.50634C4.47817 5.32239 4.21708 6.32692 4.33101 7.32474V13.9921C4.33652 14.0966 4.32062 14.2012 4.28433 14.2994C4.24804 14.3976 4.19212 14.4873 4.11995 14.5632C4.04497 14.6322 3.95684 14.6853 3.86083 14.7195C3.76483 14.7536 3.66292 14.768 3.56122 14.7618H1.2767C1.175 14.768 1.07311 14.7536 0.977104 14.7195C0.881102 14.6853 0.792969 14.6322 0.717992 14.5632C0.645821 14.4873 0.589878 14.3976 0.553586 14.2994C0.517295 14.2012 0.50142 14.0966 0.506924 13.9921V1.46445C0.50142 1.3599 0.517295 1.25533 0.553586 1.15712C0.589878 1.05892 0.645821 0.96916 0.717992 0.893319C0.792969 0.824327 0.881102 0.77117 0.977104 0.737036C1.07311 0.702902 1.175 0.688493 1.2767 0.694665H3.56122C3.66292 0.688493 3.76483 0.702902 3.86083 0.737036C3.95684 0.77117 4.04497 0.824327 4.11995 0.893319C4.19212 0.96916 4.24804 1.05892 4.28433 1.15712C4.32062 1.25533 4.33652 1.3599 4.33101 1.46445V1.94867C4.82321 1.46436 5.41098 1.08801 6.05682 0.843654C6.70381 0.580444 7.39458 0.441449 8.09302 0.433933C8.86527 0.367572 9.64271 0.469766 10.3716 0.733446C11.1005 0.997126 11.7634 1.416 12.3144 1.96108" fill="white"/>
</svg>
