<svg width="11" height="12" viewBox="0 0 11 12" fill="none" xmlns="http://www.w3.org/2000/svg">
<path d="M9.78241 1.82758C10.5221 2.80905 10.8786 4.02652 10.7851 5.25195V10.9939C10.7942 11.0731 10.7852 11.1534 10.759 11.2287C10.7327 11.3039 10.6898 11.3723 10.6334 11.4287C10.577 11.4851 10.5086 11.528 10.4334 11.5543C10.3581 11.5805 10.2778 11.5895 10.1986 11.5804H8.38239C8.3049 11.5851 8.22726 11.5741 8.15412 11.5481C8.08097 11.5221 8.01382 11.4816 7.9567 11.4291C7.90171 11.3713 7.85909 11.3029 7.83144 11.2281C7.80379 11.1533 7.79169 11.0736 7.79589 10.9939V5.25195C7.79589 3.80463 7.10534 3.0857 5.7337 3.0857C5.4494 3.07961 5.16739 3.13768 4.90863 3.2556C4.64987 3.37352 4.42101 3.54824 4.23908 3.7668C3.79309 4.38854 3.59417 5.1539 3.68097 5.91412V10.9939C3.68516 11.0736 3.67306 11.1533 3.6454 11.2281C3.61775 11.3029 3.57515 11.3713 3.52016 11.4291C3.46303 11.4816 3.39589 11.5221 3.32274 11.5481C3.2496 11.5741 3.17195 11.5851 3.09447 11.5804H1.3539C1.27642 11.5851 1.19878 11.5741 1.12564 11.5481C1.0525 11.5221 0.985349 11.4816 0.928224 11.4291C0.873238 11.3713 0.830615 11.3029 0.802964 11.2281C0.775314 11.1533 0.763219 11.0736 0.767413 10.9939V1.44919C0.763219 1.36954 0.775314 1.28986 0.802964 1.21505C0.830615 1.14023 0.873238 1.07184 0.928224 1.01405C0.985349 0.961488 1.0525 0.920988 1.12564 0.894982C1.19878 0.868975 1.27642 0.857997 1.3539 0.8627H3.09447C3.17195 0.857997 3.2496 0.868975 3.32274 0.894982C3.39589 0.920988 3.46303 0.961488 3.52016 1.01405C3.57515 1.07184 3.61775 1.14023 3.6454 1.21505C3.67306 1.28986 3.68516 1.36954 3.68097 1.44919V1.81812C4.05597 1.44912 4.5038 1.16239 4.99585 0.976214C5.48879 0.775675 6.01509 0.669776 6.54723 0.664049C7.1356 0.613489 7.72793 0.69135 8.28326 0.892247C8.83858 1.09314 9.34364 1.41228 9.76348 1.82758" fill="#021F55"/>
</svg>
