<svg width="25" height="22" viewBox="0 0 25 22" fill="none" xmlns="http://www.w3.org/2000/svg">
<path d="M23.554 15.4833L16.2135 2.76796C15.7966 2.08539 15.2036 1.52767 14.4968 1.15338C13.79 0.779085 12.9954 0.602035 12.1966 0.640819C11.3987 0.60806 10.6064 0.78772 9.90063 1.16144C9.19489 1.53517 8.60103 2.08956 8.17971 2.76796L0.839168 15.4833C0.556086 15.9709 0.371816 16.5095 0.296879 17.0683C0.221942 17.6271 0.257809 18.1952 0.402424 18.7402C0.694488 19.8408 1.41179 20.7803 2.39654 21.352C3.38129 21.9237 4.55282 22.0808 5.6534 21.7887C6.75398 21.4967 7.69346 20.7793 8.26517 19.7946L12.1966 12.9763L16.1375 19.7946C16.4133 20.2919 16.7854 20.7292 17.2321 21.0811C17.6787 21.4331 18.191 21.6925 18.7389 21.8444C19.2869 21.9963 19.8597 22.0375 20.4238 21.9656C20.9878 21.8938 21.532 21.7103 22.0244 21.426C22.5168 21.1416 22.9477 20.762 23.2919 20.3094C23.6361 19.8567 23.8866 19.3401 24.029 18.7896C24.1714 18.239 24.2027 17.6657 24.1212 17.1029C24.0396 16.5402 23.8468 15.9993 23.554 15.5118" fill="#07BD81"/>
</svg>
