<svg width="33" height="26" viewBox="0 0 33 26" fill="none" xmlns="http://www.w3.org/2000/svg">
<path d="M11.4571 11.4486C11.9769 10.6651 12.6824 10.0224 13.5109 9.57775C14.3394 9.13314 15.265 8.90046 16.2052 8.90046C17.1455 8.90046 18.0711 9.13314 18.8995 9.57775C19.728 10.0224 20.4336 10.6651 20.9533 11.4486L29.2245 25.8353C31.0084 23.4239 32.0878 20.5645 32.3425 17.5758C32.5971 14.587 32.017 11.5863 30.6667 8.90781C29.3165 6.22933 27.2491 3.97832 24.6949 2.40555C22.1407 0.832775 19.2001 0 16.2005 0C13.2009 0 10.2602 0.832775 7.70605 2.40555C5.15187 3.97832 3.08449 6.22933 1.73423 8.90781C0.383966 11.5863 -0.196154 14.587 0.0584909 17.5758C0.313136 20.5645 1.39254 23.4239 3.17647 25.8353L11.4571 11.4486Z" fill="#2D81F7"/>
</svg>
