<svg width="9" height="19" viewBox="0 0 9 19" fill="none" xmlns="http://www.w3.org/2000/svg">
<path d="M6.17266 13.5341C6.133 14.0824 6.2538 14.6303 6.5203 15.111C6.69003 15.3072 6.90624 15.4577 7.14917 15.5488C7.39209 15.6399 7.65397 15.6687 7.91087 15.6324H8.09712C8.61859 15.6324 8.89174 15.8807 8.89174 16.3774V18.0784C8.90204 18.2873 8.83081 18.492 8.69308 18.6495C8.62285 18.7248 8.53844 18.7855 8.44469 18.8281C8.35094 18.8707 8.2497 18.8944 8.14678 18.8978H7.16593C6.26323 18.9233 5.36119 18.8273 4.4841 18.6122C3.86945 18.452 3.32693 18.0889 2.94453 17.5817C2.51791 16.9318 2.31721 16.1595 2.37341 15.3841V7.82285H1.38013C1.27756 7.82737 1.17514 7.811 1.0791 7.77471C0.98305 7.73843 0.895383 7.68299 0.821424 7.61178C0.747644 7.53966 0.690523 7.45229 0.654063 7.35577C0.617603 7.25926 0.602687 7.15594 0.610357 7.05306V5.22793C0.602687 5.12505 0.617603 5.02173 0.654063 4.92522C0.690523 4.8287 0.747644 4.74133 0.821424 4.66922C0.895383 4.598 0.98305 4.54256 1.0791 4.50628C1.17514 4.46999 1.27756 4.45362 1.38013 4.45814H2.32373V1.45351C2.31635 1.35052 2.3312 1.24715 2.36727 1.15041C2.40334 1.05366 2.4598 0.965804 2.53281 0.892795C2.60582 0.819786 2.69368 0.763331 2.79043 0.727258C2.88717 0.691184 2.99054 0.676336 3.09353 0.683722H5.35321C5.45619 0.676336 5.55957 0.691184 5.65631 0.727258C5.75305 0.763331 5.84092 0.819786 5.91393 0.892795C5.98693 0.965804 6.04339 1.05366 6.07947 1.15041C6.11554 1.24715 6.13039 1.35052 6.123 1.45351V4.45814H8.17161C8.27601 4.45405 8.3802 4.47059 8.4782 4.5068C8.5762 4.54302 8.66609 4.59821 8.74273 4.66922C8.81172 4.74419 8.8649 4.83232 8.89903 4.92832C8.93316 5.02433 8.94756 5.12623 8.94139 5.22793V7.05306C8.94756 7.15476 8.93316 7.25667 8.89903 7.35267C8.8649 7.44867 8.81172 7.5368 8.74273 7.61178C8.66609 7.68278 8.5762 7.73797 8.4782 7.77419C8.3802 7.81041 8.27601 7.82694 8.17161 7.82285H6.123L6.17266 13.5341Z" fill="white"/>
</svg>
