<svg width="7" height="15" viewBox="0 0 7 15" fill="none" xmlns="http://www.w3.org/2000/svg">
<path d="M4.27454 10.5979C4.24433 11.0156 4.33636 11.433 4.53941 11.7993C4.66873 11.9488 4.83346 12.0635 5.01854 12.1329C5.20362 12.2023 5.40315 12.2242 5.59888 12.1966H5.74079C6.13809 12.1966 6.3462 12.3858 6.3462 12.7642V14.0601C6.35405 14.2193 6.29978 14.3753 6.19484 14.4953C6.14133 14.5527 6.07702 14.5989 6.0056 14.6314C5.93417 14.6638 5.85703 14.6819 5.77862 14.6845H5.03132C4.34355 14.7039 3.65629 14.6307 2.98804 14.4669C2.51974 14.3448 2.10639 14.0682 1.81504 13.6818C1.49001 13.1866 1.33709 12.5982 1.37991 12.0074V6.24651H0.623139C0.544989 6.24996 0.466957 6.23748 0.393779 6.20984C0.320602 6.18219 0.253809 6.13996 0.19746 6.0857C0.141247 6.03075 0.097727 5.96418 0.0699481 5.89065C0.0421692 5.81712 0.030805 5.7384 0.0366484 5.66001V4.26946C0.030805 4.19107 0.0421692 4.11235 0.0699481 4.03882C0.097727 3.96529 0.141247 3.89872 0.19746 3.84377C0.253809 3.78951 0.320602 3.74728 0.393779 3.71963C0.466957 3.69199 0.544989 3.67951 0.623139 3.68296H1.34206V1.39374C1.33644 1.31527 1.34775 1.23651 1.37523 1.16281C1.40272 1.0891 1.44573 1.02216 1.50136 0.966533C1.55698 0.910908 1.62393 0.867895 1.69764 0.840411C1.77134 0.812927 1.8501 0.801614 1.92857 0.807241H3.65021C3.72867 0.801614 3.80743 0.812927 3.88114 0.840411C3.95485 0.867895 4.02179 0.910908 4.07742 0.966533C4.13304 1.02216 4.17606 1.0891 4.20354 1.16281C4.23103 1.23651 4.24234 1.31527 4.23671 1.39374V3.68296H5.79754C5.87708 3.67984 5.95646 3.69244 6.03113 3.72003C6.1058 3.74763 6.17428 3.78968 6.23267 3.84377C6.28524 3.9009 6.32575 3.96804 6.35176 4.04119C6.37776 4.11433 6.38873 4.19197 6.38403 4.26946V5.66001C6.38873 5.7375 6.37776 5.81514 6.35176 5.88828C6.32575 5.96143 6.28524 6.02857 6.23267 6.0857C6.17428 6.13979 6.1058 6.18184 6.03113 6.20944C5.95646 6.23703 5.87708 6.24963 5.79754 6.24651H4.23671L4.27454 10.5979Z" fill="#021F55"/>
</svg>
