<svg width="197" height="13" viewBox="0 0 197 13" fill="none" xmlns="http://www.w3.org/2000/svg">
<path d="M6.93427 7.9H2.47027L1.54627 10H0.310266L4.11427 1.6H5.30227L9.11827 10H7.85827L6.93427 7.9ZM6.51427 6.94L4.70227 2.824L2.89027 6.94H6.51427ZM10.2033 1.096H11.3553V10H10.2033V1.096ZM14.6589 4.708C14.8589 4.34 15.1549 4.06 15.5469 3.868C15.9389 3.676 16.4149 3.58 16.9749 3.58V4.696C16.9109 4.688 16.8229 4.684 16.7109 4.684C16.0869 4.684 15.5949 4.872 15.2349 5.248C14.8829 5.616 14.7069 6.144 14.7069 6.832V10H13.5549V3.64H14.6589V4.708ZM24.0841 6.856C24.0841 6.944 24.0761 7.06 24.0601 7.204H18.9001C18.9721 7.764 19.2161 8.216 19.6321 8.56C20.0561 8.896 20.5801 9.064 21.2041 9.064C21.9641 9.064 22.5761 8.808 23.0401 8.296L23.6761 9.04C23.3881 9.376 23.0281 9.632 22.5961 9.808C22.1721 9.984 21.6961 10.072 21.1681 10.072C20.4961 10.072 19.9001 9.936 19.3801 9.664C18.8601 9.384 18.4561 8.996 18.1681 8.5C17.8881 8.004 17.7481 7.444 17.7481 6.82C17.7481 6.204 17.8841 5.648 18.1561 5.152C18.4361 4.656 18.8161 4.272 19.2961 4C19.7841 3.72 20.3321 3.58 20.9401 3.58C21.5481 3.58 22.0881 3.72 22.5601 4C23.0401 4.272 23.4121 4.656 23.6761 5.152C23.9481 5.648 24.0841 6.216 24.0841 6.856ZM20.9401 4.552C20.3881 4.552 19.9241 4.72 19.5481 5.056C19.1801 5.392 18.9641 5.832 18.9001 6.376H22.9801C22.9161 5.84 22.6961 5.404 22.3201 5.068C21.9521 4.724 21.4921 4.552 20.9401 4.552ZM27.824 3.58C28.704 3.58 29.376 3.796 29.84 4.228C30.312 4.66 30.548 5.304 30.548 6.16V10H29.456V9.16C29.264 9.456 28.988 9.684 28.628 9.844C28.276 9.996 27.856 10.072 27.368 10.072C26.656 10.072 26.084 9.9 25.652 9.556C25.228 9.212 25.016 8.76 25.016 8.2C25.016 7.64 25.22 7.192 25.628 6.856C26.036 6.512 26.684 6.34 27.572 6.34H29.396V6.112C29.396 5.616 29.252 5.236 28.964 4.972C28.676 4.708 28.252 4.576 27.692 4.576C27.316 4.576 26.948 4.64 26.588 4.768C26.228 4.888 25.924 5.052 25.676 5.26L25.196 4.396C25.524 4.132 25.916 3.932 26.372 3.796C26.828 3.652 27.312 3.58 27.824 3.58ZM27.56 9.184C28 9.184 28.38 9.088 28.7 8.896C29.02 8.696 29.252 8.416 29.396 8.056V7.168H27.62C26.644 7.168 26.156 7.496 26.156 8.152C26.156 8.472 26.28 8.724 26.528 8.908C26.776 9.092 27.12 9.184 27.56 9.184ZM38.715 1.096V10H37.611V8.992C37.355 9.344 37.031 9.612 36.639 9.796C36.247 9.98 35.815 10.072 35.343 10.072C34.727 10.072 34.175 9.936 33.687 9.664C33.199 9.392 32.815 9.012 32.535 8.524C32.263 8.028 32.127 7.46 32.127 6.82C32.127 6.18 32.263 5.616 32.535 5.128C32.815 4.64 33.199 4.26 33.687 3.988C34.175 3.716 34.727 3.58 35.343 3.58C35.799 3.58 36.219 3.668 36.603 3.844C36.987 4.012 37.307 4.264 37.563 4.6V1.096H38.715ZM35.439 9.064C35.839 9.064 36.203 8.972 36.531 8.788C36.859 8.596 37.115 8.332 37.299 7.996C37.483 7.652 37.575 7.26 37.575 6.82C37.575 6.38 37.483 5.992 37.299 5.656C37.115 5.312 36.859 5.048 36.531 4.864C36.203 4.68 35.839 4.588 35.439 4.588C35.031 4.588 34.663 4.68 34.335 4.864C34.015 5.048 33.759 5.312 33.567 5.656C33.383 5.992 33.291 6.38 33.291 6.82C33.291 7.26 33.383 7.652 33.567 7.996C33.759 8.332 34.015 8.596 34.335 8.788C34.663 8.972 35.031 9.064 35.439 9.064ZM46.5227 3.64L43.4387 10.636C43.1667 11.284 42.8467 11.74 42.4787 12.004C42.1187 12.268 41.6827 12.4 41.1707 12.4C40.8587 12.4 40.5547 12.348 40.2587 12.244C39.9707 12.148 39.7307 12.004 39.5387 11.812L40.0307 10.948C40.3587 11.26 40.7387 11.416 41.1707 11.416C41.4507 11.416 41.6827 11.34 41.8667 11.188C42.0587 11.044 42.2307 10.792 42.3827 10.432L42.5867 9.988L39.7787 3.64H40.9787L43.1987 8.728L45.3947 3.64H46.5227ZM58.2125 1.6V10H57.0125V6.256H52.1885V10H50.9885V1.6H52.1885V5.212H57.0125V1.6H58.2125ZM62.8748 3.58C63.7548 3.58 64.4268 3.796 64.8908 4.228C65.3628 4.66 65.5988 5.304 65.5988 6.16V10H64.5068V9.16C64.3148 9.456 64.0388 9.684 63.6788 9.844C63.3268 9.996 62.9068 10.072 62.4188 10.072C61.7068 10.072 61.1348 9.9 60.7028 9.556C60.2788 9.212 60.0668 8.76 60.0668 8.2C60.0668 7.64 60.2708 7.192 60.6788 6.856C61.0868 6.512 61.7348 6.34 62.6228 6.34H64.4468V6.112C64.4468 5.616 64.3028 5.236 64.0148 4.972C63.7268 4.708 63.3028 4.576 62.7428 4.576C62.3668 4.576 61.9988 4.64 61.6388 4.768C61.2788 4.888 60.9748 5.052 60.7268 5.26L60.2468 4.396C60.5748 4.132 60.9668 3.932 61.4228 3.796C61.8788 3.652 62.3628 3.58 62.8748 3.58ZM62.6108 9.184C63.0508 9.184 63.4308 9.088 63.7508 8.896C64.0708 8.696 64.3028 8.416 64.4468 8.056V7.168H62.6708C61.6948 7.168 61.2068 7.496 61.2068 8.152C61.2068 8.472 61.3308 8.724 61.5788 8.908C61.8268 9.092 62.1708 9.184 62.6108 9.184ZM73.2415 3.64L70.4575 10H69.2815L66.4975 3.64H67.6975L69.8815 8.74L72.1135 3.64H73.2415ZM79.8888 6.856C79.8888 6.944 79.8808 7.06 79.8648 7.204H74.7048C74.7768 7.764 75.0208 8.216 75.4368 8.56C75.8608 8.896 76.3848 9.064 77.0088 9.064C77.7688 9.064 78.3808 8.808 78.8448 8.296L79.4808 9.04C79.1928 9.376 78.8328 9.632 78.4008 9.808C77.9768 9.984 77.5008 10.072 76.9728 10.072C76.3008 10.072 75.7048 9.936 75.1848 9.664C74.6648 9.384 74.2608 8.996 73.9728 8.5C73.6928 8.004 73.5528 7.444 73.5528 6.82C73.5528 6.204 73.6888 5.648 73.9608 5.152C74.2408 4.656 74.6208 4.272 75.1008 4C75.5888 3.72 76.1368 3.58 76.7448 3.58C77.3528 3.58 77.8928 3.72 78.3648 4C78.8448 4.272 79.2168 4.656 79.4808 5.152C79.7528 5.648 79.8888 6.216 79.8888 6.856ZM76.7448 4.552C76.1928 4.552 75.7288 4.72 75.3528 5.056C74.9848 5.392 74.7688 5.832 74.7048 6.376H78.7848C78.7208 5.84 78.5008 5.404 78.1248 5.068C77.7568 4.724 77.2968 4.552 76.7448 4.552ZM87.0271 3.58C87.9071 3.58 88.5791 3.796 89.0431 4.228C89.5151 4.66 89.7511 5.304 89.7511 6.16V10H88.6591V9.16C88.4671 9.456 88.1911 9.684 87.8311 9.844C87.4791 9.996 87.0591 10.072 86.5711 10.072C85.8591 10.072 85.2871 9.9 84.8551 9.556C84.4311 9.212 84.2191 8.76 84.2191 8.2C84.2191 7.64 84.4231 7.192 84.8311 6.856C85.2391 6.512 85.8871 6.34 86.7751 6.34H88.5991V6.112C88.5991 5.616 88.4551 5.236 88.1671 4.972C87.8791 4.708 87.4551 4.576 86.8951 4.576C86.5191 4.576 86.1511 4.64 85.7911 4.768C85.4311 4.888 85.1271 5.052 84.8791 5.26L84.3991 4.396C84.7271 4.132 85.1191 3.932 85.5751 3.796C86.0311 3.652 86.5151 3.58 87.0271 3.58ZM86.7631 9.184C87.2031 9.184 87.5831 9.088 87.9031 8.896C88.2231 8.696 88.4551 8.416 88.5991 8.056V7.168H86.8231C85.8471 7.168 85.3591 7.496 85.3591 8.152C85.3591 8.472 85.4831 8.724 85.7311 8.908C85.9791 9.092 86.3231 9.184 86.7631 9.184ZM95.279 3.58C96.087 3.58 96.727 3.816 97.199 4.288C97.679 4.752 97.919 5.436 97.919 6.34V10H96.767V6.472C96.767 5.856 96.619 5.392 96.323 5.08C96.027 4.768 95.603 4.612 95.051 4.612C94.427 4.612 93.935 4.796 93.575 5.164C93.215 5.524 93.035 6.044 93.035 6.724V10H91.883V3.64H92.987V4.6C93.219 4.272 93.531 4.02 93.923 3.844C94.323 3.668 94.775 3.58 95.279 3.58ZM108.794 7.9H104.33L103.406 10H102.17L105.974 1.6H107.162L110.978 10H109.718L108.794 7.9ZM108.374 6.94L106.562 2.824L104.75 6.94H108.374ZM114.776 10.072C114.128 10.072 113.548 9.932 113.036 9.652C112.532 9.372 112.136 8.988 111.848 8.5C111.56 8.004 111.416 7.444 111.416 6.82C111.416 6.196 111.56 5.64 111.848 5.152C112.136 4.656 112.532 4.272 113.036 4C113.548 3.72 114.128 3.58 114.776 3.58C115.352 3.58 115.864 3.696 116.312 3.928C116.768 4.16 117.12 4.496 117.368 4.936L116.492 5.5C116.292 5.196 116.044 4.968 115.748 4.816C115.452 4.664 115.124 4.588 114.764 4.588C114.348 4.588 113.972 4.68 113.636 4.864C113.308 5.048 113.048 5.312 112.856 5.656C112.672 5.992 112.58 6.38 112.58 6.82C112.58 7.268 112.672 7.664 112.856 8.008C113.048 8.344 113.308 8.604 113.636 8.788C113.972 8.972 114.348 9.064 114.764 9.064C115.124 9.064 115.452 8.988 115.748 8.836C116.044 8.684 116.292 8.456 116.492 8.152L117.368 8.704C117.12 9.144 116.768 9.484 116.312 9.724C115.864 9.956 115.352 10.072 114.776 10.072ZM121.538 10.072C120.89 10.072 120.31 9.932 119.798 9.652C119.294 9.372 118.898 8.988 118.61 8.5C118.322 8.004 118.178 7.444 118.178 6.82C118.178 6.196 118.322 5.64 118.61 5.152C118.898 4.656 119.294 4.272 119.798 4C120.31 3.72 120.89 3.58 121.538 3.58C122.114 3.58 122.626 3.696 123.074 3.928C123.53 4.16 123.882 4.496 124.13 4.936L123.254 5.5C123.054 5.196 122.806 4.968 122.51 4.816C122.214 4.664 121.886 4.588 121.526 4.588C121.11 4.588 120.734 4.68 120.398 4.864C120.07 5.048 119.81 5.312 119.618 5.656C119.434 5.992 119.342 6.38 119.342 6.82C119.342 7.268 119.434 7.664 119.618 8.008C119.81 8.344 120.07 8.604 120.398 8.788C120.734 8.972 121.11 9.064 121.526 9.064C121.886 9.064 122.214 8.988 122.51 8.836C122.806 8.684 123.054 8.456 123.254 8.152L124.13 8.704C123.882 9.144 123.53 9.484 123.074 9.724C122.626 9.956 122.114 10.072 121.538 10.072ZM128.252 10.072C127.62 10.072 127.052 9.932 126.548 9.652C126.044 9.372 125.648 8.988 125.36 8.5C125.08 8.004 124.94 7.444 124.94 6.82C124.94 6.196 125.08 5.64 125.36 5.152C125.648 4.656 126.044 4.272 126.548 4C127.052 3.72 127.62 3.58 128.252 3.58C128.884 3.58 129.448 3.72 129.944 4C130.448 4.272 130.84 4.656 131.12 5.152C131.408 5.64 131.552 6.196 131.552 6.82C131.552 7.444 131.408 8.004 131.12 8.5C130.84 8.988 130.448 9.372 129.944 9.652C129.448 9.932 128.884 10.072 128.252 10.072ZM128.252 9.064C128.66 9.064 129.024 8.972 129.344 8.788C129.672 8.596 129.928 8.332 130.112 7.996C130.296 7.652 130.388 7.26 130.388 6.82C130.388 6.38 130.296 5.992 130.112 5.656C129.928 5.312 129.672 5.048 129.344 4.864C129.024 4.68 128.66 4.588 128.252 4.588C127.844 4.588 127.476 4.68 127.148 4.864C126.828 5.048 126.572 5.312 126.38 5.656C126.196 5.992 126.104 6.38 126.104 6.82C126.104 7.26 126.196 7.652 126.38 7.996C126.572 8.332 126.828 8.596 127.148 8.788C127.476 8.972 127.844 9.064 128.252 9.064ZM139.073 3.64V10H137.981V9.04C137.749 9.368 137.441 9.624 137.057 9.808C136.681 9.984 136.269 10.072 135.821 10.072C134.973 10.072 134.305 9.84 133.817 9.376C133.329 8.904 133.085 8.212 133.085 7.3V3.64H134.237V7.168C134.237 7.784 134.385 8.252 134.681 8.572C134.977 8.884 135.401 9.04 135.953 9.04C136.561 9.04 137.041 8.856 137.393 8.488C137.745 8.12 137.921 7.6 137.921 6.928V3.64H139.073ZM144.662 3.58C145.47 3.58 146.11 3.816 146.582 4.288C147.062 4.752 147.302 5.436 147.302 6.34V10H146.15V6.472C146.15 5.856 146.002 5.392 145.706 5.08C145.41 4.768 144.986 4.612 144.434 4.612C143.81 4.612 143.318 4.796 142.958 5.164C142.598 5.524 142.418 6.044 142.418 6.724V10H141.266V3.64H142.37V4.6C142.602 4.272 142.914 4.02 143.306 3.844C143.706 3.668 144.158 3.58 144.662 3.58ZM153.01 9.628C152.842 9.772 152.634 9.884 152.386 9.964C152.138 10.036 151.882 10.072 151.618 10.072C150.978 10.072 150.482 9.9 150.13 9.556C149.778 9.212 149.602 8.72 149.602 8.08V4.588H148.522V3.64H149.602V2.248H150.754V3.64H152.578V4.588H150.754V8.032C150.754 8.376 150.838 8.64 151.006 8.824C151.182 9.008 151.43 9.1 151.75 9.1C152.102 9.1 152.402 9 152.65 8.8L153.01 9.628ZM155.847 7.348C155.847 7.028 155.899 6.748 156.003 6.508C156.115 6.26 156.247 6.052 156.399 5.884C156.559 5.716 156.767 5.516 157.023 5.284C157.343 5.004 157.579 4.764 157.731 4.564C157.883 4.356 157.959 4.108 157.959 3.82C157.959 3.428 157.807 3.116 157.503 2.884C157.199 2.644 156.779 2.524 156.243 2.524C155.307 2.524 154.591 2.84 154.095 3.472L153.219 2.848C153.555 2.416 153.983 2.084 154.503 1.852C155.031 1.62 155.639 1.504 156.327 1.504C157.199 1.504 157.891 1.696 158.403 2.08C158.915 2.456 159.171 2.976 159.171 3.64C159.171 3.968 159.115 4.26 159.003 4.516C158.899 4.764 158.771 4.972 158.619 5.14C158.467 5.308 158.263 5.508 158.007 5.74C157.679 6.036 157.435 6.296 157.275 6.52C157.123 6.744 157.047 7.02 157.047 7.348H155.847ZM156.459 10.072C156.235 10.072 156.047 10 155.895 9.856C155.751 9.704 155.679 9.52 155.679 9.304C155.679 9.088 155.751 8.908 155.895 8.764C156.047 8.612 156.235 8.536 156.459 8.536C156.683 8.536 156.867 8.612 157.011 8.764C157.155 8.908 157.227 9.088 157.227 9.304C157.227 9.52 157.151 9.704 156.999 9.856C156.855 10 156.675 10.072 156.459 10.072Z" fill="black"/>
<path d="M164.473 1.6H165.673V8.956H170.221V10H164.473V1.6ZM174.072 10.072C173.44 10.072 172.872 9.932 172.368 9.652C171.864 9.372 171.468 8.988 171.18 8.5C170.9 8.004 170.76 7.444 170.76 6.82C170.76 6.196 170.9 5.64 171.18 5.152C171.468 4.656 171.864 4.272 172.368 4C172.872 3.72 173.44 3.58 174.072 3.58C174.704 3.58 175.268 3.72 175.764 4C176.268 4.272 176.66 4.656 176.94 5.152C177.228 5.64 177.372 6.196 177.372 6.82C177.372 7.444 177.228 8.004 176.94 8.5C176.66 8.988 176.268 9.372 175.764 9.652C175.268 9.932 174.704 10.072 174.072 10.072ZM174.072 9.064C174.48 9.064 174.844 8.972 175.164 8.788C175.492 8.596 175.748 8.332 175.932 7.996C176.116 7.652 176.208 7.26 176.208 6.82C176.208 6.38 176.116 5.992 175.932 5.656C175.748 5.312 175.492 5.048 175.164 4.864C174.844 4.68 174.48 4.588 174.072 4.588C173.664 4.588 173.296 4.68 172.968 4.864C172.648 5.048 172.392 5.312 172.2 5.656C172.016 5.992 171.924 6.38 171.924 6.82C171.924 7.26 172.016 7.652 172.2 7.996C172.392 8.332 172.648 8.596 172.968 8.788C173.296 8.972 173.664 9.064 174.072 9.064ZM185.049 3.64V9.136C185.049 10.248 184.773 11.068 184.221 11.596C183.669 12.132 182.845 12.4 181.749 12.4C181.149 12.4 180.577 12.316 180.033 12.148C179.489 11.988 179.049 11.756 178.713 11.452L179.265 10.564C179.561 10.82 179.925 11.02 180.357 11.164C180.797 11.316 181.249 11.392 181.713 11.392C182.457 11.392 183.005 11.216 183.357 10.864C183.717 10.512 183.897 9.976 183.897 9.256V8.752C183.625 9.08 183.289 9.328 182.889 9.496C182.497 9.656 182.069 9.736 181.605 9.736C180.997 9.736 180.445 9.608 179.949 9.352C179.461 9.088 179.077 8.724 178.797 8.26C178.517 7.788 178.377 7.252 178.377 6.652C178.377 6.052 178.517 5.52 178.797 5.056C179.077 4.584 179.461 4.22 179.949 3.964C180.445 3.708 180.997 3.58 181.605 3.58C182.085 3.58 182.529 3.668 182.937 3.844C183.353 4.02 183.693 4.28 183.957 4.624V3.64H185.049ZM181.737 8.728C182.153 8.728 182.525 8.64 182.853 8.464C183.189 8.288 183.449 8.044 183.633 7.732C183.825 7.412 183.921 7.052 183.921 6.652C183.921 6.036 183.717 5.54 183.309 5.164C182.901 4.78 182.377 4.588 181.737 4.588C181.089 4.588 180.561 4.78 180.153 5.164C179.745 5.54 179.541 6.036 179.541 6.652C179.541 7.052 179.633 7.412 179.817 7.732C180.009 8.044 180.269 8.288 180.597 8.464C180.933 8.64 181.313 8.728 181.737 8.728ZM187.25 3.64H188.402V10H187.25V3.64ZM187.826 2.416C187.602 2.416 187.414 2.344 187.262 2.2C187.118 2.056 187.046 1.88 187.046 1.672C187.046 1.464 187.118 1.288 187.262 1.144C187.414 0.992 187.602 0.916 187.826 0.916C188.05 0.916 188.234 0.988 188.378 1.132C188.53 1.268 188.606 1.44 188.606 1.648C188.606 1.864 188.53 2.048 188.378 2.2C188.234 2.344 188.05 2.416 187.826 2.416ZM193.998 3.58C194.806 3.58 195.446 3.816 195.918 4.288C196.398 4.752 196.638 5.436 196.638 6.34V10H195.486V6.472C195.486 5.856 195.338 5.392 195.042 5.08C194.746 4.768 194.322 4.612 193.77 4.612C193.146 4.612 192.654 4.796 192.294 5.164C191.934 5.524 191.754 6.044 191.754 6.724V10H190.602V3.64H191.706V4.6C191.938 4.272 192.25 4.02 192.642 3.844C193.042 3.668 193.494 3.58 193.998 3.58Z" fill="#2D81F7"/>
</svg>
