<svg width="362" height="24" viewBox="0 0 362 24" fill="none" xmlns="http://www.w3.org/2000/svg">
<path d="M15.184 2.2V19H12.064V11.8H3.376V19H0.256V2.2H3.376V9.136H12.064V2.2H15.184ZM19.3977 6.184H22.3977V19H19.3977V6.184ZM20.9097 4.072C20.3657 4.072 19.9097 3.904 19.5417 3.568C19.1737 3.216 18.9897 2.784 18.9897 2.272C18.9897 1.76 19.1737 1.336 19.5417 0.999999C19.9097 0.647999 20.3657 0.472 20.9097 0.472C21.4537 0.472 21.9097 0.639999 22.2777 0.975999C22.6457 1.296 22.8297 1.704 22.8297 2.2C22.8297 2.728 22.6457 3.176 22.2777 3.544C21.9257 3.896 21.4697 4.072 20.9097 4.072ZM27.3192 15.184C27.8792 15.184 28.3432 15.368 28.7112 15.736C29.0792 16.104 29.2632 16.584 29.2632 17.176C29.2632 17.432 29.2232 17.704 29.1432 17.992C29.0792 18.264 28.9352 18.68 28.7112 19.24L27.4872 22.624H25.5432L26.5032 18.952C26.1512 18.808 25.8712 18.584 25.6632 18.28C25.4712 17.96 25.3752 17.592 25.3752 17.176C25.3752 16.584 25.5592 16.104 25.9272 15.736C26.2952 15.368 26.7592 15.184 27.3192 15.184ZM44.3234 19.24C43.0274 19.24 41.7714 19.056 40.5554 18.688C39.3554 18.32 38.4034 17.832 37.6994 17.224L38.7794 14.8C39.4674 15.344 40.3074 15.792 41.2994 16.144C42.3074 16.48 43.3154 16.648 44.3234 16.648C45.5714 16.648 46.4994 16.448 47.1074 16.048C47.7314 15.648 48.0434 15.12 48.0434 14.464C48.0434 13.984 47.8674 13.592 47.5154 13.288C47.1794 12.968 46.7474 12.72 46.2194 12.544C45.6914 12.368 44.9714 12.168 44.0594 11.944C42.7794 11.64 41.7394 11.336 40.9394 11.032C40.1554 10.728 39.4754 10.256 38.8994 9.616C38.3394 8.96 38.0594 8.08 38.0594 6.976C38.0594 6.048 38.3074 5.208 38.8034 4.456C39.3154 3.688 40.0754 3.08 41.0834 2.632C42.1074 2.184 43.3554 1.96 44.8274 1.96C45.8514 1.96 46.8594 2.088 47.8514 2.344C48.8434 2.6 49.6994 2.968 50.4194 3.448L49.4354 5.872C48.6994 5.44 47.9314 5.112 47.1314 4.888C46.3314 4.664 45.5554 4.552 44.8034 4.552C43.5714 4.552 42.6514 4.76 42.0434 5.176C41.4514 5.592 41.1554 6.144 41.1554 6.832C41.1554 7.312 41.3234 7.704 41.6594 8.008C42.0114 8.312 42.4514 8.552 42.9794 8.728C43.5074 8.904 44.2274 9.104 45.1394 9.328C46.3874 9.616 47.4114 9.92 48.2114 10.24C49.0114 10.544 49.6914 11.016 50.2514 11.656C50.8274 12.296 51.1154 13.16 51.1154 14.248C51.1154 15.176 50.8594 16.016 50.3474 16.768C49.8514 17.52 49.0914 18.12 48.0674 18.568C47.0434 19.016 45.7954 19.24 44.3234 19.24ZM61.1931 6.04C62.8091 6.04 64.1051 6.512 65.0811 7.456C66.0571 8.4 66.5451 9.8 66.5451 11.656V19H63.5451V12.04C63.5451 10.92 63.2811 10.08 62.7531 9.52C62.2251 8.944 61.4731 8.656 60.4971 8.656C59.3931 8.656 58.5211 8.992 57.8811 9.664C57.2411 10.32 56.9211 11.272 56.9211 12.52V19H53.9211V1.192H56.9211V7.672C57.4171 7.144 58.0251 6.744 58.7451 6.472C59.4811 6.184 60.2971 6.04 61.1931 6.04ZM75.2468 6.04C77.1348 6.04 78.5748 6.496 79.5668 7.408C80.5748 8.304 81.0788 9.664 81.0788 11.488V19H78.2468V17.44C77.8788 18 77.3508 18.432 76.6628 18.736C75.9908 19.024 75.1748 19.168 74.2148 19.168C73.2548 19.168 72.4148 19.008 71.6948 18.688C70.9748 18.352 70.4148 17.896 70.0148 17.32C69.6308 16.728 69.4388 16.064 69.4388 15.328C69.4388 14.176 69.8628 13.256 70.7108 12.568C71.5748 11.864 72.9268 11.512 74.7668 11.512H78.0788V11.32C78.0788 10.424 77.8068 9.736 77.2628 9.256C76.7348 8.776 75.9428 8.536 74.8868 8.536C74.1668 8.536 73.4548 8.648 72.7508 8.872C72.0628 9.096 71.4788 9.408 70.9988 9.808L69.8228 7.624C70.4948 7.112 71.3028 6.72 72.2468 6.448C73.1908 6.176 74.1908 6.04 75.2468 6.04ZM74.8388 16.984C75.5908 16.984 76.2548 16.816 76.8308 16.48C77.4228 16.128 77.8388 15.632 78.0788 14.992V13.504H74.9828C73.2548 13.504 72.3908 14.072 72.3908 15.208C72.3908 15.752 72.6068 16.184 73.0388 16.504C73.4708 16.824 74.0708 16.984 74.8388 16.984ZM88.8889 19.168C87.8489 19.168 86.8329 19.032 85.8409 18.76C84.8489 18.488 84.0569 18.144 83.4649 17.728L84.6169 15.448C85.1929 15.832 85.8809 16.144 86.6809 16.384C87.4969 16.608 88.2969 16.72 89.0809 16.72C90.8729 16.72 91.7689 16.248 91.7689 15.304C91.7689 14.856 91.5369 14.544 91.0729 14.368C90.6249 14.192 89.8969 14.024 88.8889 13.864C87.8329 13.704 86.9689 13.52 86.2969 13.312C85.6409 13.104 85.0649 12.744 84.5689 12.232C84.0889 11.704 83.8489 10.976 83.8489 10.048C83.8489 8.832 84.3529 7.864 85.3609 7.144C86.3849 6.408 87.7609 6.04 89.4889 6.04C90.3689 6.04 91.2489 6.144 92.1289 6.352C93.0089 6.544 93.7289 6.808 94.2889 7.144L93.1369 9.424C92.0489 8.784 90.8249 8.464 89.4649 8.464C88.5849 8.464 87.9129 8.6 87.4489 8.872C87.0009 9.128 86.7769 9.472 86.7769 9.904C86.7769 10.384 87.0169 10.728 87.4969 10.936C87.9929 11.128 88.7529 11.312 89.7769 11.488C90.8009 11.648 91.6409 11.832 92.2969 12.04C92.9529 12.248 93.5129 12.6 93.9769 13.096C94.4569 13.592 94.6969 14.296 94.6969 15.208C94.6969 16.408 94.1769 17.368 93.1369 18.088C92.0969 18.808 90.6809 19.168 88.8889 19.168ZM104.553 6.04C106.169 6.04 107.465 6.512 108.441 7.456C109.417 8.4 109.905 9.8 109.905 11.656V19H106.905V12.04C106.905 10.92 106.641 10.08 106.113 9.52C105.585 8.944 104.833 8.656 103.857 8.656C102.753 8.656 101.881 8.992 101.241 9.664C100.601 10.32 100.281 11.272 100.281 12.52V19H97.2805V1.192H100.281V7.672C100.777 7.144 101.385 6.744 102.105 6.472C102.841 6.184 103.657 6.04 104.553 6.04ZM121.414 18.304C121.062 18.592 120.63 18.808 120.118 18.952C119.622 19.096 119.094 19.168 118.534 19.168C117.126 19.168 116.038 18.8 115.27 18.064C114.502 17.328 114.118 16.256 114.118 14.848V8.68H112.006V6.28H114.118V3.352H117.118V6.28H120.55V8.68H117.118V14.776C117.118 15.4 117.27 15.88 117.574 16.216C117.878 16.536 118.318 16.696 118.894 16.696C119.566 16.696 120.126 16.52 120.574 16.168L121.414 18.304ZM123.882 6.184H126.882V19H123.882V6.184ZM125.394 4.072C124.85 4.072 124.394 3.904 124.026 3.568C123.658 3.216 123.474 2.784 123.474 2.272C123.474 1.76 123.658 1.336 124.026 0.999999C124.394 0.647999 124.85 0.472 125.394 0.472C125.938 0.472 126.394 0.639999 126.762 0.975999C127.13 1.296 127.314 1.704 127.314 2.2C127.314 2.728 127.13 3.176 126.762 3.544C126.41 3.896 125.954 4.072 125.394 4.072ZM142.948 19.24C141.652 19.24 140.396 19.056 139.18 18.688C137.98 18.32 137.028 17.832 136.324 17.224L137.404 14.8C138.092 15.344 138.932 15.792 139.924 16.144C140.932 16.48 141.94 16.648 142.948 16.648C144.196 16.648 145.124 16.448 145.732 16.048C146.356 15.648 146.668 15.12 146.668 14.464C146.668 13.984 146.492 13.592 146.14 13.288C145.804 12.968 145.372 12.72 144.844 12.544C144.316 12.368 143.596 12.168 142.684 11.944C141.404 11.64 140.364 11.336 139.564 11.032C138.78 10.728 138.1 10.256 137.524 9.616C136.964 8.96 136.684 8.08 136.684 6.976C136.684 6.048 136.932 5.208 137.428 4.456C137.94 3.688 138.7 3.08 139.708 2.632C140.732 2.184 141.98 1.96 143.452 1.96C144.476 1.96 145.484 2.088 146.476 2.344C147.468 2.6 148.324 2.968 149.044 3.448L148.06 5.872C147.324 5.44 146.556 5.112 145.756 4.888C144.956 4.664 144.18 4.552 143.428 4.552C142.196 4.552 141.276 4.76 140.668 5.176C140.076 5.592 139.78 6.144 139.78 6.832C139.78 7.312 139.948 7.704 140.284 8.008C140.636 8.312 141.076 8.552 141.604 8.728C142.132 8.904 142.852 9.104 143.764 9.328C145.012 9.616 146.036 9.92 146.836 10.24C147.636 10.544 148.316 11.016 148.876 11.656C149.452 12.296 149.74 13.16 149.74 14.248C149.74 15.176 149.484 16.016 148.972 16.768C148.476 17.52 147.716 18.12 146.692 18.568C145.668 19.016 144.42 19.24 142.948 19.24ZM164.594 12.664C164.594 12.872 164.578 13.168 164.546 13.552H154.49C154.666 14.496 155.122 15.248 155.858 15.808C156.61 16.352 157.538 16.624 158.642 16.624C160.05 16.624 161.21 16.16 162.122 15.232L163.73 17.08C163.154 17.768 162.426 18.288 161.546 18.64C160.666 18.992 159.674 19.168 158.57 19.168C157.162 19.168 155.922 18.888 154.85 18.328C153.778 17.768 152.946 16.992 152.354 16C151.778 14.992 151.49 13.856 151.49 12.592C151.49 11.344 151.77 10.224 152.33 9.232C152.906 8.224 153.698 7.44 154.706 6.88C155.714 6.32 156.85 6.04 158.114 6.04C159.362 6.04 160.474 6.32 161.45 6.88C162.442 7.424 163.21 8.2 163.754 9.208C164.314 10.2 164.594 11.352 164.594 12.664ZM158.114 8.44C157.154 8.44 156.338 8.728 155.666 9.304C155.01 9.864 154.61 10.616 154.466 11.56H161.738C161.61 10.632 161.218 9.88 160.562 9.304C159.906 8.728 159.09 8.44 158.114 8.44ZM175.18 18.304C174.828 18.592 174.396 18.808 173.884 18.952C173.388 19.096 172.86 19.168 172.3 19.168C170.892 19.168 169.804 18.8 169.036 18.064C168.268 17.328 167.884 16.256 167.884 14.848V8.68H165.772V6.28H167.884V3.352H170.884V6.28H174.316V8.68H170.884V14.776C170.884 15.4 171.036 15.88 171.34 16.216C171.644 16.536 172.084 16.696 172.66 16.696C173.332 16.696 173.892 16.52 174.34 16.168L175.18 18.304ZM196.281 6.184L190.281 20.032C189.721 21.424 189.041 22.4 188.241 22.96C187.441 23.536 186.473 23.824 185.337 23.824C184.697 23.824 184.065 23.72 183.441 23.512C182.817 23.304 182.304 23.016 181.904 22.648L183.104 20.44C183.393 20.712 183.729 20.928 184.113 21.088C184.513 21.248 184.913 21.328 185.312 21.328C185.841 21.328 186.273 21.192 186.609 20.92C186.961 20.648 187.281 20.192 187.569 19.552L187.785 19.048L182.192 6.184H185.312L189.345 15.664L193.401 6.184H196.281ZM203.564 19.168C202.268 19.168 201.1 18.888 200.06 18.328C199.02 17.768 198.204 16.992 197.612 16C197.036 14.992 196.748 13.856 196.748 12.592C196.748 11.328 197.036 10.2 197.612 9.208C198.204 8.216 199.02 7.44 200.06 6.88C201.1 6.32 202.268 6.04 203.564 6.04C204.876 6.04 206.052 6.32 207.092 6.88C208.132 7.44 208.94 8.216 209.516 9.208C210.108 10.2 210.404 11.328 210.404 12.592C210.404 13.856 210.108 14.992 209.516 16C208.94 16.992 208.132 17.768 207.092 18.328C206.052 18.888 204.876 19.168 203.564 19.168ZM203.564 16.6C204.668 16.6 205.58 16.232 206.3 15.496C207.02 14.76 207.38 13.792 207.38 12.592C207.38 11.392 207.02 10.424 206.3 9.688C205.58 8.952 204.668 8.584 203.564 8.584C202.46 8.584 201.548 8.952 200.828 9.688C200.124 10.424 199.772 11.392 199.772 12.592C199.772 13.792 200.124 14.76 200.828 15.496C201.548 16.232 202.46 16.6 203.564 16.6ZM225.681 6.184V19H222.825V17.368C222.345 17.944 221.745 18.392 221.025 18.712C220.305 19.016 219.529 19.168 218.697 19.168C216.985 19.168 215.633 18.696 214.641 17.752C213.665 16.792 213.177 15.376 213.177 13.504V6.184H216.177V13.096C216.177 14.248 216.433 15.112 216.945 15.688C217.473 16.248 218.217 16.528 219.177 16.528C220.249 16.528 221.097 16.2 221.721 15.544C222.361 14.872 222.681 13.912 222.681 12.664V6.184H225.681ZM232.465 8.056C233.329 6.712 234.849 6.04 237.025 6.04V8.896C236.769 8.848 236.537 8.824 236.329 8.824C235.161 8.824 234.249 9.168 233.593 9.856C232.937 10.528 232.609 11.504 232.609 12.784V19H229.609V6.184H232.465V8.056ZM253.424 6.04C254.672 6.04 255.784 6.312 256.76 6.856C257.752 7.4 258.528 8.168 259.088 9.16C259.648 10.152 259.928 11.296 259.928 12.592C259.928 13.888 259.648 15.04 259.088 16.048C258.528 17.04 257.752 17.808 256.76 18.352C255.784 18.896 254.672 19.168 253.424 19.168C251.696 19.168 250.328 18.592 249.32 17.44V23.656H246.32V6.184H249.176V7.864C249.672 7.256 250.28 6.8 251 6.496C251.736 6.192 252.544 6.04 253.424 6.04ZM253.088 16.6C254.192 16.6 255.096 16.232 255.8 15.496C256.52 14.76 256.88 13.792 256.88 12.592C256.88 11.392 256.52 10.424 255.8 9.688C255.096 8.952 254.192 8.584 253.088 8.584C252.368 8.584 251.72 8.752 251.144 9.088C250.568 9.408 250.112 9.872 249.776 10.48C249.44 11.088 249.272 11.792 249.272 12.592C249.272 13.392 249.44 14.096 249.776 14.704C250.112 15.312 250.568 15.784 251.144 16.12C251.72 16.44 252.368 16.6 253.088 16.6ZM267.505 6.04C269.393 6.04 270.833 6.496 271.825 7.408C272.833 8.304 273.337 9.664 273.337 11.488V19H270.505V17.44C270.137 18 269.609 18.432 268.921 18.736C268.249 19.024 267.433 19.168 266.473 19.168C265.513 19.168 264.673 19.008 263.953 18.688C263.233 18.352 262.673 17.896 262.273 17.32C261.889 16.728 261.697 16.064 261.697 15.328C261.697 14.176 262.121 13.256 262.969 12.568C263.833 11.864 265.185 11.512 267.025 11.512H270.337V11.32C270.337 10.424 270.065 9.736 269.521 9.256C268.993 8.776 268.201 8.536 267.145 8.536C266.425 8.536 265.713 8.648 265.009 8.872C264.321 9.096 263.737 9.408 263.257 9.808L262.081 7.624C262.753 7.112 263.561 6.72 264.505 6.448C265.449 6.176 266.449 6.04 267.505 6.04ZM267.097 16.984C267.849 16.984 268.513 16.816 269.089 16.48C269.681 16.128 270.097 15.632 270.337 14.992V13.504H267.241C265.513 13.504 264.649 14.072 264.649 15.208C264.649 15.752 264.865 16.184 265.297 16.504C265.729 16.824 266.329 16.984 267.097 16.984ZM281.147 19.168C280.107 19.168 279.091 19.032 278.099 18.76C277.107 18.488 276.315 18.144 275.723 17.728L276.875 15.448C277.451 15.832 278.139 16.144 278.939 16.384C279.755 16.608 280.555 16.72 281.339 16.72C283.131 16.72 284.027 16.248 284.027 15.304C284.027 14.856 283.795 14.544 283.331 14.368C282.883 14.192 282.155 14.024 281.147 13.864C280.091 13.704 279.227 13.52 278.555 13.312C277.899 13.104 277.323 12.744 276.827 12.232C276.347 11.704 276.107 10.976 276.107 10.048C276.107 8.832 276.611 7.864 277.619 7.144C278.643 6.408 280.019 6.04 281.747 6.04C282.627 6.04 283.507 6.144 284.387 6.352C285.267 6.544 285.987 6.808 286.547 7.144L285.395 9.424C284.307 8.784 283.083 8.464 281.723 8.464C280.843 8.464 280.171 8.6 279.707 8.872C279.259 9.128 279.035 9.472 279.035 9.904C279.035 10.384 279.275 10.728 279.755 10.936C280.251 11.128 281.011 11.312 282.035 11.488C283.059 11.648 283.899 11.832 284.555 12.04C285.211 12.248 285.771 12.6 286.235 13.096C286.715 13.592 286.955 14.296 286.955 15.208C286.955 16.408 286.435 17.368 285.395 18.088C284.355 18.808 282.939 19.168 281.147 19.168ZM293.498 19.168C292.458 19.168 291.442 19.032 290.45 18.76C289.458 18.488 288.666 18.144 288.074 17.728L289.226 15.448C289.802 15.832 290.49 16.144 291.29 16.384C292.106 16.608 292.906 16.72 293.69 16.72C295.482 16.72 296.378 16.248 296.378 15.304C296.378 14.856 296.146 14.544 295.682 14.368C295.234 14.192 294.506 14.024 293.498 13.864C292.442 13.704 291.578 13.52 290.906 13.312C290.25 13.104 289.674 12.744 289.178 12.232C288.698 11.704 288.458 10.976 288.458 10.048C288.458 8.832 288.962 7.864 289.97 7.144C290.994 6.408 292.37 6.04 294.098 6.04C294.978 6.04 295.858 6.144 296.738 6.352C297.618 6.544 298.338 6.808 298.898 7.144L297.746 9.424C296.658 8.784 295.434 8.464 294.074 8.464C293.194 8.464 292.522 8.6 292.058 8.872C291.61 9.128 291.386 9.472 291.386 9.904C291.386 10.384 291.626 10.728 292.106 10.936C292.602 11.128 293.362 11.312 294.386 11.488C295.41 11.648 296.25 11.832 296.906 12.04C297.562 12.248 298.122 12.6 298.586 13.096C299.066 13.592 299.306 14.296 299.306 15.208C299.306 16.408 298.786 17.368 297.746 18.088C296.706 18.808 295.29 19.168 293.498 19.168ZM321.648 6.184L316.92 19H314.04L310.728 10.168L307.368 19H304.488L299.784 6.184H302.616L306 15.64L309.528 6.184H312.048L315.504 15.688L318.984 6.184H321.648ZM329.119 19.168C327.823 19.168 326.655 18.888 325.615 18.328C324.575 17.768 323.759 16.992 323.167 16C322.591 14.992 322.303 13.856 322.303 12.592C322.303 11.328 322.591 10.2 323.167 9.208C323.759 8.216 324.575 7.44 325.615 6.88C326.655 6.32 327.823 6.04 329.119 6.04C330.431 6.04 331.607 6.32 332.647 6.88C333.687 7.44 334.495 8.216 335.071 9.208C335.663 10.2 335.959 11.328 335.959 12.592C335.959 13.856 335.663 14.992 335.071 16C334.495 16.992 333.687 17.768 332.647 18.328C331.607 18.888 330.431 19.168 329.119 19.168ZM329.119 16.6C330.223 16.6 331.135 16.232 331.855 15.496C332.575 14.76 332.935 13.792 332.935 12.592C332.935 11.392 332.575 10.424 331.855 9.688C331.135 8.952 330.223 8.584 329.119 8.584C328.015 8.584 327.103 8.952 326.383 9.688C325.679 10.424 325.327 11.392 325.327 12.592C325.327 13.792 325.679 14.76 326.383 15.496C327.103 16.232 328.015 16.6 329.119 16.6ZM341.683 8.056C342.547 6.712 344.067 6.04 346.243 6.04V8.896C345.987 8.848 345.755 8.824 345.547 8.824C344.379 8.824 343.467 9.168 342.811 9.856C342.155 10.528 341.827 11.504 341.827 12.784V19H338.827V6.184H341.683V8.056ZM361.223 1.192V19H358.343V17.344C357.847 17.952 357.231 18.408 356.495 18.712C355.775 19.016 354.975 19.168 354.095 19.168C352.863 19.168 351.751 18.896 350.759 18.352C349.783 17.808 349.015 17.04 348.455 16.048C347.895 15.04 347.615 13.888 347.615 12.592C347.615 11.296 347.895 10.152 348.455 9.16C349.015 8.168 349.783 7.4 350.759 6.856C351.751 6.312 352.863 6.04 354.095 6.04C354.943 6.04 355.719 6.184 356.423 6.472C357.127 6.76 357.727 7.192 358.223 7.768V1.192H361.223ZM354.455 16.6C355.175 16.6 355.823 16.44 356.399 16.12C356.975 15.784 357.431 15.312 357.767 14.704C358.103 14.096 358.271 13.392 358.271 12.592C358.271 11.792 358.103 11.088 357.767 10.48C357.431 9.872 356.975 9.408 356.399 9.088C355.823 8.752 355.175 8.584 354.455 8.584C353.735 8.584 353.087 8.752 352.511 9.088C351.935 9.408 351.479 9.872 351.143 10.48C350.807 11.088 350.639 11.792 350.639 12.592C350.639 13.392 350.807 14.096 351.143 14.704C351.479 15.312 351.935 15.784 352.511 16.12C353.087 16.44 353.735 16.6 354.455 16.6Z" fill="#021F55"/>
</svg>
