<svg width="15" height="16" viewBox="0 0 15 16" fill="none" xmlns="http://www.w3.org/2000/svg">
<path d="M0.905361 9.02548V1.57596C0.899856 1.47141 0.91575 1.36684 0.952042 1.26864C0.988334 1.17044 1.04426 1.08068 1.11643 1.00483C1.19141 0.935842 1.27954 0.882685 1.37554 0.848551C1.47154 0.814417 1.57346 0.800008 1.67516 0.80618H4.03416C4.13814 0.79429 4.24344 0.806023 4.34225 0.840504C4.44106 0.874985 4.53081 0.931324 4.60481 1.00532C4.67881 1.07932 4.73515 1.16907 4.76963 1.26787C4.80411 1.36668 4.81583 1.47199 4.80394 1.57596V9.02548C4.75012 9.40163 4.78335 9.78511 4.90105 10.1464C5.01876 10.5077 5.2178 10.8371 5.48286 11.1094C5.74792 11.3817 6.07194 11.5895 6.42994 11.7168C6.78795 11.8441 7.1704 11.8876 7.54786 11.8439C7.92615 11.8542 8.30179 11.7779 8.64609 11.6208C8.99038 11.4637 9.29422 11.23 9.53438 10.9375C10.1108 10.1321 10.3634 9.13937 10.2421 8.15637V1.57596C10.2366 1.47141 10.2525 1.36684 10.2888 1.26864C10.3251 1.17044 10.381 1.08068 10.4532 1.00483C10.5281 0.935842 10.6163 0.882685 10.7123 0.848551C10.8083 0.814417 10.9102 0.800008 11.0119 0.80618H13.3212C13.4229 0.800008 13.5248 0.814417 13.6208 0.848551C13.7168 0.882685 13.805 0.935842 13.8799 1.00483C13.9521 1.08068 14.0081 1.17044 14.0443 1.26864C14.0806 1.36684 14.0965 1.47141 14.091 1.57596V13.9918C14.0965 14.0964 14.0806 14.201 14.0443 14.2992C14.0081 14.3974 13.9521 14.4871 13.8799 14.563C13.805 14.6319 13.7168 14.6851 13.6208 14.7192C13.5248 14.7534 13.4229 14.7678 13.3212 14.7616H10.9871C10.8854 14.7678 10.7834 14.7534 10.6874 14.7192C10.5914 14.6851 10.5033 14.6319 10.4283 14.563C10.3606 14.4851 10.3092 14.3944 10.2772 14.2963C10.2452 14.1982 10.2333 14.0947 10.2421 13.9918V13.5573C9.77241 14.0485 9.20008 14.4301 8.56595 14.6747C7.89823 14.9396 7.18604 15.0745 6.46768 15.072C2.78431 15.072 0.938475 13.0648 0.930198 9.05031" fill="white"/>
</svg>
