<svg width="11" height="12" viewBox="0 0 11 12" fill="none" xmlns="http://www.w3.org/2000/svg">
<path d="M0.642412 7.20987V1.53412C0.638218 1.45446 0.650328 1.37479 0.677978 1.29997C0.705629 1.22515 0.748237 1.15676 0.803224 1.09897C0.860349 1.04641 0.927497 1.00591 1.00064 0.979904C1.07378 0.953897 1.15143 0.942919 1.22892 0.947621H3.02623C3.10545 0.938562 3.18568 0.947502 3.26096 0.973773C3.33624 1.00004 3.40463 1.04297 3.46101 1.09935C3.51739 1.15573 3.56031 1.2241 3.58658 1.29938C3.61286 1.37466 3.62178 1.4549 3.61273 1.53412V7.20987C3.57172 7.49646 3.59704 7.78863 3.68671 8.0639C3.77639 8.33916 3.92804 8.59018 4.12999 8.79761C4.33194 9.00504 4.57881 9.16336 4.85157 9.26038C5.12433 9.3574 5.41572 9.39052 5.7033 9.3572C5.99153 9.36504 6.27772 9.3069 6.54004 9.18722C6.80236 9.06753 7.03385 8.88948 7.21683 8.66665C7.65598 8.05297 7.84844 7.29665 7.75603 6.5477V1.53412C7.75184 1.45446 7.76393 1.37479 7.79158 1.29997C7.81924 1.22515 7.86186 1.15676 7.91684 1.09897C7.97397 1.04641 8.04112 1.00591 8.11426 0.979904C8.18741 0.953897 8.26504 0.942919 8.34252 0.947621H10.102C10.1795 0.942919 10.2571 0.953897 10.3303 0.979904C10.4034 1.00591 10.4706 1.04641 10.5277 1.09897C10.5827 1.15676 10.6253 1.22515 10.6529 1.29997C10.6806 1.37479 10.6927 1.45446 10.6885 1.53412V10.9937C10.6927 11.0734 10.6806 11.153 10.6529 11.2279C10.6253 11.3027 10.5827 11.3711 10.5277 11.4289C10.4706 11.4814 10.4034 11.5219 10.3303 11.5479C10.2571 11.5739 10.1795 11.5849 10.102 11.5802H8.32362C8.24613 11.5849 8.16848 11.5739 8.09534 11.5479C8.02219 11.5219 7.95505 11.4814 7.89792 11.4289C7.84631 11.3695 7.80716 11.3005 7.78278 11.2257C7.7584 11.1509 7.74931 11.0721 7.75603 10.9937V10.6626C7.39818 11.0369 6.96212 11.3276 6.47898 11.514C5.97025 11.7158 5.42763 11.8186 4.88032 11.8167C2.07398 11.8167 0.667642 10.2874 0.661336 7.22879" fill="#021F55"/>
</svg>
